<svg width="994" height="682" viewBox="0 0 994 682" fill="none" xmlns="http://www.w3.org/2000/svg">
<path fill-rule="evenodd" clip-rule="evenodd" d="M716.032 404.595L723.695 395.554L729.442 388.045L733.81 377.471L742.967 371.035L746.492 373.602L750.209 375.901L754.73 375.441L759.098 376.667L765.649 383.869L773.312 389.501L781.78 388.275L789.673 389.118L788.294 395.669L786.301 403.062L781.972 410.226L778.447 417.773L780.286 421.528L783.504 424.286L786.876 432.446L788.485 440.376H788.255L783.159 439.457L771.358 435.473L765.994 434.591L761.358 433.059L753.58 426.393L747.641 424.899L742.431 425.972L737.143 427.772L731.817 428.155L726.415 424.899L720.783 430.109L685.801 432.829L675.38 436.699L669.862 436.813L669.096 436.277L670.016 428.845L671.74 419.766L655.916 416.586L645.264 405.169L649.594 397.737L655.149 390.535L655.647 383.409L654.421 376.284L652.965 376.935L651.471 376.82L653.004 372.453L656.375 368.737L671.701 341.69L687.64 324.872V334.718L692.468 343.72L694.001 355.52L695.878 367.089L702.008 376.437L708.177 385.823L711.932 395.286L716.032 404.595Z" fill="#1B618C" stroke="black" stroke-width="2" stroke-linecap="round" stroke-linejoin="round"/>
<path fill-rule="evenodd" clip-rule="evenodd" d="M644.114 239.671L643.923 241.778L644.727 249.363L643.157 258.059L639.555 266.181L631.7 260.32L623.194 255.454L615.455 249.67L607.792 243.77L613.079 238.713L614.037 229.787L617.677 225.228L621.93 222.393L629.057 217.604V209.904L612.773 205.996L599.631 212.317L597.83 205.575L599.516 198.526L602.006 191.4L603.003 183.738L603.577 182.321L604.573 183.317L613.807 187.071L619.248 186.152L629.708 182.129L635.11 181.248L647.218 180.75L652.582 179.601L658.099 177.341L666.031 171.977L669.096 171.326L671.893 171.939L677.602 174.735L681.127 175.387L687.64 173.739L690.475 173.433L692.046 173.51L693.502 173.854L694.575 174.697L694.997 176.344L695.878 177.762L697.717 177.226L700.667 175.387L716.3 181.784L720.897 185.117L723.963 178.95L728.905 174.352L741.128 167.571L748.982 165.158L750.86 168.453L748.752 175.272L744.806 183.355L750.17 185.309H756.224L762.124 183.777L767.028 181.248L768.599 187.493L765.113 192.396L760.285 196.84L757.833 201.744L756.683 206.916L753.542 211.551L748.829 214.961L742.967 216.455L721.817 212.547L698.675 214.31L693.234 212.739L683.272 207.759L648.942 203.468L645.072 204.541L643.578 208.372L642.735 221.933L640.704 233.503L641.547 237.832L644.114 239.671Z" fill="#1B618C" stroke="black" stroke-width="2" stroke-linecap="round" stroke-linejoin="round"/>
<path fill-rule="evenodd" clip-rule="evenodd" d="M607.792 243.77L615.455 249.67L623.195 255.454L631.7 260.32L639.555 266.181L651.969 277.329L667.295 285.106L680.82 291.849L694 299.089L703.732 300.354L708.713 305.372L703.579 308.935L698.062 312.383L692.429 318.244L687.64 324.872L671.701 341.69L656.375 368.737L646.72 365.059L637.601 367.013L632.505 370.346L626.643 371.572L611.01 377.395L598.596 390.458L596.451 382.413L590.78 376.935L589.248 371.304L585.531 366.362L579.439 359.427L572.121 353.643L565.876 353.336L559.63 353.068L556.22 353.221L553.078 354.294L551.814 356.861L551.124 359.466L539.706 364.791L526.948 362.262L518.135 359.887L509.553 356.669L504.61 347.781L497.062 345.023L490.549 340.196L483.575 336.288L478.901 330.81L474.418 325.14L476.257 316.214L481.774 310.046L495.759 307.058L507.177 304.3L512.311 299.702L519.4 297.978L525.032 299.089L529.86 299.856L533.155 294.875L538.519 295.871L547.293 300.2L554.841 294.339L559.477 275.835L563.5 257.523L570.742 257.791L574.803 252.39L575.148 247.984L575.722 244.804L590.129 243.08L607.792 243.77Z" fill="#1B618C" stroke="black" stroke-width="2" stroke-linecap="round" stroke-linejoin="round"/>
<path fill-rule="evenodd" clip-rule="evenodd" d="M837.873 438.193L832.087 435.741L820.823 434.132L807.872 439.457L788.485 440.376L786.876 432.446L783.504 424.286L780.285 421.528L778.446 417.773L781.971 410.226L786.301 403.062L799.788 394.673L810.133 381.532L816.914 368.392L828.677 363.795L833.122 373.985L838.332 383.448L845.114 389.616L850.785 396.703L851.091 405.553L847.413 413.751L842.662 426.661L837.873 438.154V438.193Z" fill="#1B618C" stroke="black" stroke-width="2" stroke-linecap="round" stroke-linejoin="round"/>
<path d="M921.974 509.104L919.253 505.465L915.613 504.162L901.705 504.584L889.138 502.86L886.034 501.749L882.05 498.837L877.375 496.539L872.662 495.619L868.678 496.807L871.015 503.779L875.344 511.403L882.088 517.494L891.552 520.023L896.111 519.41L904.464 516.766L909.253 516.192L913.774 517.111L922.472 521.095L926.571 522.015L927.031 519.793L925.077 514.697L922.05 509.143L921.974 509.104ZM984.58 366.362L969.178 356.976L957.032 345.215L955.308 344.065L952.012 342.571L940.365 334.411L924.119 321.999L912.625 307.977L881.36 278.785L878.601 277.751L873.812 277.368L871.36 275.989L869.176 274.418L864.157 280.969L856.455 286.983L856.647 290.814L855.114 293.918L853.045 305.87L860.363 319.853L854.808 335.944L841.014 346.9L833.811 348.049L827.834 351.651L826.761 357.818L828.792 363.718L833.275 373.947L838.486 383.409L845.267 389.577L850.938 396.665L851.244 405.514L847.605 413.713L842.853 426.623L838.064 438.154L843.505 440.491L851.934 446.353L859.865 455.509L868.831 468.841L875.383 482.555L875.996 492.937L880.632 494.585L903.391 492.784L906.456 491.673L907.95 488.762L912.088 472.288L914.196 467.155L917.491 462.711L919.79 457.156L918.372 451.754L917.682 447.195L922.127 444.207L925.997 445.357L936.648 452.406L941.591 454.053H947.989L953.545 453.402L957.99 451.141L961.055 446.314L961.553 443.518L961.055 433.672L961.859 430.952L963.622 429.037L965.423 427.504L990.71 388.888L992.166 377.74L984.733 366.362H984.58Z" fill="#1B618C" stroke="black" stroke-width="2" stroke-linecap="round" stroke-linejoin="round"/>
<path fill-rule="evenodd" clip-rule="evenodd" d="M754.232 262.733L754.117 263.768L754.078 263.844L752.814 279.436L760.209 292.807L738.024 287.596L722.813 290.316L732.469 310.123L747.91 326.213L752.086 337.629L750.898 349.735L746.224 360.538L742.967 371.035L733.81 377.471L729.442 388.045L723.695 395.554L716.032 404.595L711.932 395.286L708.177 385.823L702.008 376.437L695.878 367.089L694.001 355.52L692.468 343.72L687.64 334.718V324.872L692.43 318.244L698.062 312.383L703.579 308.935L708.713 305.372L703.733 300.354L694.001 299.089L680.82 291.849L667.295 285.106L651.969 277.329L639.555 266.181L643.157 258.059L644.728 249.363L643.923 241.778L644.115 239.671L647.448 242.123L662.314 239.824L667.41 241.739L673.809 239.671L686.491 244.613L693.158 243.847L691.51 242.429L689.364 241.127L686.797 240.169L683.809 239.786V237.832L698.177 237.066L702.353 237.832L707.143 241.356L710.859 250.091L715.38 253.577L719.978 254.803L729.25 255.952L754.232 262.733Z" fill="#1B618C" stroke="black" stroke-width="2" stroke-linecap="round" stroke-linejoin="round"/>
<path fill-rule="evenodd" clip-rule="evenodd" d="M869.099 274.456L864.042 281.007L856.34 287.022L856.532 290.853L854.999 293.956L852.93 305.909L860.21 319.93L854.654 336.02L840.899 346.977L833.696 348.126L827.719 351.727L826.608 357.895L828.677 363.795L816.914 368.392L810.133 381.532L799.788 394.673L786.301 403.062L788.293 395.669L789.672 389.118L781.78 388.275L773.312 389.501L765.649 383.869L759.097 376.667L754.729 375.441L750.208 375.901L746.492 373.602L742.967 371.035L746.223 360.538L750.898 349.735L752.086 337.629L747.909 326.213L732.468 310.123L722.813 290.316L738.024 287.596L760.208 292.807L752.814 279.436L754.078 263.844L754.116 263.768L754.231 262.733L764.615 265.53L768.867 265.262L773.925 262.388L772.239 260.281L768.906 258.251L768.867 255.531L773.695 254.152L777.91 257.945L783.542 267.177L787.22 269.323L791.282 270.549L794.768 272.081L796.607 275.107L799.826 272.464L806.378 269.438L809.481 267.177L807.412 264.879L808.408 264.342L810.822 264.266L813.121 263.461L815.956 260.511L816.799 259.362L817.872 259.285L827.527 259.783L833.16 260.933L838.217 262.772L842.7 265.262L843.237 266.028V267.062L843.466 268.135L844.539 269.131L850.057 271.047L850.555 270.97L860.172 273L866.187 273.23L868.639 274.111L869.099 274.456Z" fill="#1B618C" stroke="black" stroke-width="2" stroke-linecap="round" stroke-linejoin="round"/>
<path fill-rule="evenodd" clip-rule="evenodd" d="M562.389 410.801L567.447 409.422L574.957 410.571L574.535 418.999L573.386 419.076L569.018 420.34L560.55 424.478L553.615 429.19L550.972 430.454L547.178 431.718L548.749 421.451L542.734 412.563L543.462 404.48L550.665 400.419L553.96 405.093L557.255 410.303L562.389 410.801Z" fill="#6E8C03" stroke="#114156" stroke-width="2" stroke-linecap="round" stroke-linejoin="round"/>
<path fill-rule="evenodd" clip-rule="evenodd" d="M539.707 364.791L551.125 359.466L551.814 356.861L553.079 354.294L556.221 353.221L559.631 353.068L565.876 353.336L572.121 353.643L579.439 359.427L585.531 366.362L589.248 371.304L590.781 376.935L596.451 382.413L598.597 390.458L611.011 377.395L626.643 371.572L632.506 370.346L637.601 367.013L646.72 365.059L656.376 368.737L653.004 372.453L651.471 376.82L652.966 376.935L654.422 376.284L655.648 383.409L655.15 390.535L649.594 397.737L645.264 405.169L655.916 416.586L671.74 419.766L670.016 428.845L669.096 436.277L655.111 426.585L649.172 423.405L645.188 422.945L643.502 425.589L643.655 428.768L644.115 431.986L643.387 434.591L640.973 435.358H637.18L633.732 434.706L632.199 433.672L627.678 425.933L625.532 423.865L623.502 423.213L582.045 418.655L574.535 418.999L574.957 410.571L567.447 409.422L562.389 410.801L557.255 410.303L553.96 405.093L550.665 400.419L543.462 404.48L542.734 412.563L548.749 421.451L547.178 431.718L543.807 432.829L540.971 434.247L539.975 432.484L539.745 426.317L536.335 421.26L530.281 421.03L524.189 421.221L521.124 417.888L520.396 413.023L515.377 406.893L508.749 401.951L503.806 392.91L500.894 382.873L502.197 375.901L504.534 369.58L497.254 357.742L497.062 345.023L504.611 347.781L509.553 356.669L518.136 359.887L526.948 362.262L539.707 364.791Z" fill="#6E8C03" stroke="#114156" stroke-width="2" stroke-linecap="round" stroke-linejoin="round"/>
<path fill-rule="evenodd" clip-rule="evenodd" d="M309.434 85.6648L307.672 95.2423L303.764 103.939L296.867 104.858L290.2 100.108L290.66 105.854L292.806 110.988L296.714 112.865L300.698 115.355L300.469 123.209L298.591 131.445L304.722 136.081L303.649 141.138L291.809 141.214L280.736 136.425L278.323 139.452L275.756 143.168L271.886 143.666L267.939 142.785L260.123 139.452L252.613 135.276L232.805 131.713L223.264 115.738L226.329 105.931L224.682 95.5105L226.368 89.4192L232.92 90.0705L232.268 80.6079L231.502 71.1837L233.801 62.6023L236.789 54.2124L245.985 57.5071L254.682 61.7978L260.698 66.3566L267.939 68.2721L278.859 71.7583L287.978 79.0372L298.093 84.1707L309.434 85.6648Z" fill="#04ADBF" stroke="#114156" stroke-width="2" stroke-linecap="round" stroke-linejoin="round"/>
<path fill-rule="evenodd" clip-rule="evenodd" d="M178.053 115.432L186.788 114.665L192.038 111.984L197.785 111.218L206.176 116.159L214.643 116.964L218.628 114.167L223.264 115.738L232.805 131.713L252.613 135.276L249.088 140.141L248.514 145.811L252.039 148.34L254.376 151.136L244.031 154.661L234.299 159.335L229.241 159.603L224.145 159.067L220.007 161.825L216.712 165.694L211.808 169.793L208.015 174.965L207.134 183.585L206.367 192.396L207.325 198.373L211.77 202.625L212.153 211.283L210.735 220.247L196.367 220.094L184.719 214.271L172.918 207.95L160.888 201.935L152.573 190.749L141.424 183.547L136.864 178.566L134.22 172.398L147.362 166.499L150.619 148.378L152.688 142.363L152.075 135.927L155.409 123.86L161.654 113.439L165.255 108.881L169.853 112.367L178.053 115.432Z" fill="#04ADBF" stroke="#114156" stroke-width="2" stroke-linecap="round" stroke-linejoin="round"/>
<path fill-rule="evenodd" clip-rule="evenodd" d="M394.608 121.063L393.459 126.848L389.436 131.407L385.796 137.498L384.225 144.624L384.991 151.098L384.915 157.419L380.777 160.599L376.792 163.587L362.577 168.223L349.052 175.387L342.423 177.264L340.469 183.087L346.983 188.067L355.221 190.366L359.474 197.836L357.52 207.529L358.324 215.727L351.236 214.348L345.45 214.693L342.194 222.355L328.055 233.081L311.312 241.203L302.461 245.072L294.607 248.942L296.599 254.995L295.411 261.354L288.438 259.132L281.465 256.91L274.874 258.366L268.706 261.431L256.56 257.638L244.567 249.899L239.433 245.264L238.629 238.215L236.33 234.001L231.847 231.664L220.85 226.224L210.735 220.247L212.153 211.283L211.77 202.625L207.325 198.373L206.367 192.396L207.134 183.585L208.015 174.965L211.808 169.793L216.712 165.694L220.008 161.825L224.146 159.067L229.241 159.603L234.299 159.335L244.031 154.661L254.376 151.136L252.039 148.34L248.514 145.811L249.088 140.141L252.613 135.276L260.123 139.452L267.939 142.785L271.886 143.666L275.756 143.168L278.323 139.452L280.737 136.425L291.81 141.214L303.649 141.138L304.722 136.081L298.591 131.445L300.469 123.209L300.699 115.355L296.714 112.865L292.806 110.988L290.66 105.854L290.2 100.108L296.867 104.858L303.764 103.939L307.672 95.2423L309.434 85.6648L317.825 87.657L325.297 89.8023L331.35 94.9741L337.328 100.338L349.358 99.8012L350.355 82.9832L364.723 89.3809L370.317 103.019L378.21 115.853L394.608 121.063Z" fill="#04ADBF" stroke="#114156" stroke-width="2" stroke-linecap="round" stroke-linejoin="round"/>
<path fill-rule="evenodd" clip-rule="evenodd" d="M481.2 226.875L486.717 225.879L498.633 225.649L510.434 227.028L518.059 227.641L525.07 230.821L531.124 233.656L537.485 235.648L545.799 235.725L554.496 236.338L561.163 238.406L566.872 242.084L565.952 249.67L563.5 257.523L559.477 275.835L554.841 294.339L547.293 300.2L538.519 295.871L533.155 294.875L529.86 299.855L525.032 299.089L519.4 297.978L512.312 299.702L507.177 304.299L495.76 307.058L481.775 310.046L474.763 297.863L463.192 289.55L457.56 285.413L453.345 279.819L452.502 275.644L450.05 272.464L443.23 269.169L441.966 261.469L439.513 254.841L436.448 248.137L444.035 239.288L454.724 234.192L461.315 230.783L467.33 228.522L466.794 227.795L466.296 227.028L466.181 225.802L465.338 226.032L470.319 224.385L475.529 225.841L481.2 226.875Z" fill="#04ADBF" stroke="#114156" stroke-width="2" stroke-linecap="round" stroke-linejoin="round"/>
<path fill-rule="evenodd" clip-rule="evenodd" d="M441.736 64.9775L438.824 73.0609L434.839 80.6845L430.318 82.102L425.528 82.0637L420.739 83.3279L415.911 83.9792L412.54 83.1364H409.015L404.8 86.9291L402.769 92.6372L400.585 107.77L394.608 121.063L378.21 115.853L370.317 103.019L364.723 89.3809L350.355 82.9831L349.358 99.8012L337.328 100.338L331.35 94.9741L325.297 89.8023L317.825 87.6569L309.434 85.6648L298.093 84.1707L287.978 79.0372L278.859 71.7583L267.939 68.2721L260.698 66.3567L254.682 61.7978L245.985 57.5071L236.789 54.2124L228.743 50.9944L220.352 48.5426L214.988 40.2293L213.149 30.5369L215.755 29.809L216.521 27.6254L216.636 24.7138L218.092 21.7256L221.234 20.4997L223.494 23.1431L226.483 30.6902L228.59 29.3876L230.199 27.9702L231.31 26.3611L232 24.484L229.739 23.7561L229.241 23.4113L229.203 22.6834L228.322 20.7296L232.536 22.3769L236.1 22.1854L239.701 21.3042L244.031 20.7296L246.79 18.6225L251.771 9.19831L255.066 7.05296L259.165 6.01859L267.901 1.65127L272.614 1L276.982 2.1493L281.12 4.60113L283.342 8.20226L281.963 12.7611L287.173 14.8682H289.166L287.825 10.4625L287.173 8.85353L300.162 10.9606L304.032 10.5775L311.963 8.70029L315.067 8.85353L318.362 11.0755L330.201 25.2885L331.197 28.0468L329.741 30.6902L339.895 30.7668L343.764 32.6823L354.033 41.3403L363.803 46.3206L374.148 49.9983L386.179 51.7989L402.425 51.9521L403.766 51.1093L405.145 49.1938L408.402 46.9335L412.08 45.0181L414.8 44.1752L425.298 47.5082L441.736 64.9775Z" fill="#04ADBF" stroke="#114156" stroke-width="2" stroke-linecap="round" stroke-linejoin="round"/>
<path fill-rule="evenodd" clip-rule="evenodd" d="M213.247 30.6242L215.086 40.3166L220.45 48.6298L228.841 51.0817L236.887 54.2997L233.898 62.6896L231.599 71.271L232.366 80.6952L233.017 90.1578L226.465 89.5065L224.779 95.5978L226.427 106.018L223.362 115.825L218.726 114.255L214.741 117.051L206.273 116.247L197.882 111.305L192.135 112.071L186.886 114.753L178.15 115.519L169.951 112.454L165.353 108.968L161.751 113.527L150.678 108.278L140.448 101.459L136.387 94.0271L129.605 92.0733L101.291 95.5978L75.1599 84.4496L72.1331 83.6834L72.4013 79.1628L71.4434 74.0676L69.0679 66.2141L74.2021 67.3634L79.068 69.8535L78.0336 64.1837L73.2442 53.1504L73.5507 50.3155V48.1701L66.3092 47.8253L65.3896 44.7605L68.3016 40.24L72.5545 35.6045L73.7423 34.7234L75.1216 34.4169L78.1485 34.4935L79.9876 33.7656L82.9762 30.0879L84.5854 28.6321L87.7655 27.3295L90.1794 26.7549L92.5166 25.6439L95.6201 22.7707L93.781 19.2078L93.4744 15.9898L94.8921 13.7295L98.3787 12.8484L100.448 13.1549L103.666 14.649L105.735 14.9554L106.616 14.3425L108.494 11.6608L109.452 11.0478L137.115 8.9408L144.165 9.93685L151.1 12.427L176.771 25.8355L184.319 27.3679L191.484 24.5712L196.925 28.5555L200.794 30.356L212.71 30.7774L213.247 30.6242Z" fill="#04ADBF" stroke="#114156" stroke-width="2" stroke-linecap="round" stroke-linejoin="round"/>
<path fill-rule="evenodd" clip-rule="evenodd" d="M436.448 248.137L439.514 254.841L441.966 261.469L443.23 269.169L450.05 272.464L452.502 275.644L453.345 279.819L457.56 285.413L463.192 289.55L474.763 297.863L481.775 310.046L476.257 316.214L474.418 325.14L465.223 329.584L461.43 337.667L457.79 348.471L447.828 348.317L440.931 343.49L433.766 340.579L427.253 342.916L420.509 343.644L409.705 335.637L398.402 329.048L382.578 310.467L385.03 290.776L401.122 277.521L401.352 258.059L406.946 247.601L419.781 244.076L422.693 238.79L427.981 236.912L434.418 240.743L436.448 248.137Z" fill="#04ADBF" stroke="#114156" stroke-width="2" stroke-linecap="round" stroke-linejoin="round"/>
<path fill-rule="evenodd" clip-rule="evenodd" d="M603.577 182.321L603.003 183.738L602.006 191.4L599.516 198.526L597.83 205.575L599.631 212.317L580.972 208.678L562.887 200.135L544.381 195.461L531.315 184.351L527.637 177.724L519.438 176.651L510.089 169.793L506.756 157.764L505.989 147.995L502.809 138.954L493.69 132.748L484.15 126.925L484.955 118.765L486.564 111.409L492.311 111.064L498.595 111.486L511.89 103.671L516.909 88.8063L516.756 87.1207H516.718L525.607 77.5815L530.702 75.168L545.645 75.3978L552.925 74.7083L556.258 75.1297L560.358 77.5432L569.515 87.3122L572.427 93.9781L572.274 101.219L567.868 116.926L573.232 119.186L575.301 124.281L575.224 137.307L575.876 142.976L577.6 147.497L595.531 174.429L603.577 182.321Z" fill="#04ADBF" stroke="#114156" stroke-width="2" stroke-linecap="round" stroke-linejoin="round"/>
<path fill-rule="evenodd" clip-rule="evenodd" d="M391.696 169.257L397.75 166.882L403.267 165.694L408.67 179.371L416.256 177.877L420.241 187.531L425.643 196.572L433.153 203.889L444.149 204.655L452.885 218.14L466.295 227.028L466.793 227.795L467.33 228.522L461.314 230.783L454.724 234.192L444.034 239.287L436.448 248.137L434.417 240.743L427.98 236.912L422.693 238.789L419.781 244.076L406.946 247.601L401.352 258.059L401.122 277.521L385.029 290.776L382.577 310.467L398.401 329.048L394.532 341.651L387.52 350.616L381.849 355.864L377.711 360.462L365.795 360.308L353.611 360.615L357.443 344.371L347.213 331.921L330.776 323.531L319.32 307.9L316.293 281.658L302.154 272.004L299.856 265.875L295.411 261.354L296.599 254.995L294.606 248.942L302.461 245.072L311.312 241.203L328.055 233.081L342.193 222.355L345.45 214.693L351.236 214.348L358.324 215.727L357.519 207.529L359.473 197.836L355.221 190.366L346.983 188.067L340.469 183.087L342.423 177.264L349.052 175.387L362.577 168.223L376.792 163.587L383.19 168.414L391.696 169.257Z" fill="#04ADBF" stroke="#114156" stroke-width="2" stroke-linecap="round" stroke-linejoin="round"/>
<path fill-rule="evenodd" clip-rule="evenodd" d="M478.365 126.388L476.756 133.667L474.61 142.823L466.947 149.374L455.606 154.853L450.395 166.92L448.173 180.29L444.418 192.511L444.15 204.655L433.153 203.889L425.643 196.572L420.241 187.531L416.256 177.877L422.08 161.174L423.076 145.122L423 126.082L431.965 114.895L436.831 116.734L441.314 118.918L444.494 126.542L450.855 122.213L456.372 114.091L464.418 109.455L472.234 116.313L478.365 126.388Z" fill="#04ADBF" stroke="#114156" stroke-width="2" stroke-linecap="round" stroke-linejoin="round"/>
<path fill-rule="evenodd" clip-rule="evenodd" d="M516.718 87.1207H516.756L516.909 88.8063L511.89 103.671L498.595 111.486L492.311 111.064L486.564 111.409L484.955 118.765L484.15 126.925L481.277 126.35L478.365 126.388L472.234 116.313L464.418 109.455L456.372 114.091L450.855 122.213L444.494 126.542L441.314 118.918L436.831 116.734L431.965 114.895L423 126.082L423.076 145.122L422.08 161.174L416.256 177.877L408.67 179.371L403.268 165.694L397.75 166.882L391.696 169.257L383.191 168.414L376.792 163.587L380.777 160.599L384.915 157.419L384.991 151.098L384.225 144.624L385.796 137.498L389.436 131.407L393.459 126.848L394.608 121.063L400.586 107.77L402.769 92.6373L404.8 86.9291L409.015 83.1364H412.54L415.911 83.9792L420.739 83.328L425.528 82.0637L430.318 82.1021L434.839 80.6846L438.824 73.0609L441.736 64.9775L451.544 75.3978L456.027 78.6159L460.931 81.1443L466.449 82.7916L478.748 84.1325L488.595 87.6953L506.679 91.2964L510.702 91.2198L513.384 90.1854L515.798 88.1167L516.718 87.1207Z" fill="#04ADBF" stroke="#114156" stroke-width="2" stroke-linecap="round" stroke-linejoin="round"/>
<path fill-rule="evenodd" clip-rule="evenodd" d="M484.15 126.925L493.691 132.748L502.809 138.954L505.99 147.995L506.756 157.764L510.089 169.793L519.438 176.651L527.638 177.724L531.316 184.351L544.381 195.461L562.887 200.135L580.972 208.678L599.631 212.317L612.773 205.996L629.057 209.904V217.604L621.93 222.393L617.677 225.228L614.037 229.787L613.08 238.713L607.792 243.77L590.129 243.08L575.723 244.804L575.148 247.984L574.803 252.39L570.742 257.791L563.5 257.523L565.952 249.67L566.872 242.084L561.163 238.406L554.496 236.338L545.799 235.725L537.484 235.648L531.124 233.656L525.07 230.821L518.059 227.641L510.434 227.028L498.633 225.649L486.717 225.879L481.2 226.875L475.529 225.841L470.318 224.385L465.338 226.032L466.18 225.802L466.295 227.028L452.885 218.14L444.149 204.655L444.418 192.511L448.172 180.29L450.395 166.92L455.606 154.853L466.947 149.374L474.61 142.823L476.755 133.667L478.365 126.388L481.277 126.35L484.15 126.925Z" fill="#04ADBF" stroke="#114156" stroke-width="2" stroke-linecap="round" stroke-linejoin="round"/>
<path fill-rule="evenodd" clip-rule="evenodd" d="M101.193 95.5106L129.508 91.9861L136.29 93.9399L140.351 101.372L150.581 108.191L161.654 113.44L155.409 123.86L152.075 135.927L152.688 142.364L150.619 148.378L147.363 166.499L134.221 172.399L136.864 178.566L141.424 183.547L136.826 188.374L131.309 191.745L124.91 189.561L118.32 187.799L115.025 191.745L113.032 196.955L107.324 199.062L101.883 202.357L97.4 206.648L79.9667 198.143L71.0777 189.025L69.9666 187.876L65.1772 181.095L63.8362 175.387L65.5987 173.586L72.8402 169.449L75.4073 167.418L78.8173 158.722L80.3116 157.075L83.3768 150.524L83.5683 137.805L80.3499 115.47L72.8402 97.5793L71.5758 91.1049L72.0356 83.5962L75.0624 84.3624L101.193 95.5106Z" fill="#04ADBF" stroke="#114156" stroke-width="2" stroke-linecap="round" stroke-linejoin="round"/>
<path fill-rule="evenodd" clip-rule="evenodd" d="M210.735 220.247L220.851 226.223L231.847 231.663L236.33 234L238.629 238.214L239.433 245.263L244.568 249.899L256.56 257.637L268.706 261.43L274.875 258.365L281.465 256.909L288.438 259.131L295.411 261.353L299.856 265.874L302.155 272.004L299.894 278.095L294.262 280.891L293.189 286.408L289.396 290.047L282.767 294.683L279.511 301.809L277.71 315.907L277.595 330.541L275.488 335.368L271.809 338.931L267.901 337.322L265.602 332.418L256.867 335.177L258.552 345.865L258.246 349.466L255.449 353.297L257.211 356.4L257.824 360.078L252.767 362.492L248.361 364.177L241.272 374.751L229.433 377.93L219.625 372.414L206.866 376.245L199.471 377.509L192.038 376.704L185.831 378.812L180.007 382.566L166.903 381.532L154.834 375.402L141.501 372.72L128.857 368.008L132.688 359.005L129.585 350.922L122.305 349.198L117.286 343.835L117.324 336.862L115.37 330.349L109.929 325.561L103.837 321.577L107.056 307.708L102.381 301.77L104.642 286.408L111.347 272.195L117.286 266.793L124.872 266.027L133.225 263.575L137.439 254.573L140.581 242.428L146.022 232.161L155.179 233.617L163.608 238.789L173.877 238.176L182.306 231.702L182.881 222.89L184.72 214.271L196.367 220.094L210.735 220.247Z" fill="#F2DCC9" stroke="#114156" stroke-width="2" stroke-linecap="round" stroke-linejoin="round"/>
<path fill-rule="evenodd" clip-rule="evenodd" d="M420.509 343.643L427.253 342.915L433.766 340.578L440.931 343.49L447.828 348.317L442.77 359.848L441.851 372.107L443 382.145L440.088 392.182L442.042 401.376L446.065 409.804L440.28 416.087L433.536 420.799L420.356 424.669L413.076 435.472L407.176 423.672L401.582 414.018L392.884 409.574L383.919 403.675L377.673 401.453L372.999 396.97L370.968 392.756L366.983 390.305L361.351 375.938L353.612 360.614L365.796 360.308L377.712 360.461L381.85 355.864L387.52 350.615L394.532 341.651L398.402 329.047L409.705 335.636L420.509 343.643Z" fill="#F2DCC9" stroke="#114156" stroke-width="2" stroke-linecap="round" stroke-linejoin="round"/>
<path fill-rule="evenodd" clip-rule="evenodd" d="M497.063 345.022L497.254 357.741L504.534 369.579L502.197 375.9L500.894 382.872L503.806 392.909L508.749 401.951L515.377 406.893L520.396 413.022L521.124 417.888L524.189 421.22L530.282 421.029L536.335 421.259L539.745 426.316L539.975 432.484L540.971 434.246L537.6 435.97L531.584 441.333L527.025 448.497L525.262 457.002L523.845 459.339L517.638 462.595L516.22 464.664L515.147 467.805L506.028 476.272L499.515 483.819L495.798 486.999L494.151 486.232H493.499L491.813 480.754L490.664 474.395L487.216 471.406L483.729 467.959L481.698 464.396L479.783 460.756L474.418 454.397L469.438 448.076L470.779 440.72L477.752 436.698L478.25 429.84L469.706 425.818L459.093 415.512L446.065 409.804L442.042 401.376L440.088 392.182L443 382.144L441.851 372.107L442.77 359.848L447.828 348.317L457.79 348.47L461.43 337.667L465.223 329.583L474.418 325.139L478.901 330.809L483.576 336.287L490.549 340.195L497.063 345.022Z" fill="#F2DCC9" stroke="#114156" stroke-width="2" stroke-linecap="round" stroke-linejoin="round"/>
<path fill-rule="evenodd" clip-rule="evenodd" d="M493.499 486.232L487.637 486.386L482.618 487.267L479.284 489.106L474.533 486.194L469.476 485.121L435.031 485.236L429.245 487.075L418.172 493.396L411.888 494.737L393.229 494.699L388.9 492.975L388.516 490.561L390.47 488.646L392.999 486.999L394.264 485.236L393.497 482.172L391.658 480.486L389.742 479.413L387.712 476.617L386.103 475.582L401.084 472.671L410.854 461.561L410.164 453.516L412.272 445.892L414.877 440.682L413.076 435.472L420.356 424.668L433.536 420.799L440.28 416.087L446.065 409.804L459.092 415.512L469.706 425.818L478.25 429.84L477.752 436.698L470.778 440.72L469.437 448.076L474.418 454.397L479.782 460.756L481.698 464.396L483.729 467.959L487.215 471.407L490.664 474.395L491.813 480.754L493.499 486.232Z" fill="#F2DCC9" stroke="#114156" stroke-width="2" stroke-linecap="round" stroke-linejoin="round"/>
<path d="M196.521 595.914L196.942 593.883L197.249 594.113L197.057 593.385V582.39L192.766 572.506L184.681 572.123L177.861 573.771L164.604 562.814L158.819 548.333L160.658 545.843L163.455 544.847L166.137 543.774L167.593 540.747L168.129 535.652L167.861 530.48L167.516 518.949L159.24 514.16L151.194 507.38L143.493 500.139L134.182 496.346L124.336 493.856L101.423 482.516L79.1623 469.912L78.5493 469.644L66.595 490.255L64.4494 495.58L63.6831 501.173L64.1046 503.855L67.0165 511.977L67.6679 515.156L67.4763 519.869L68.0893 528.105L67.1314 533.009L63.913 541.552L78.9707 547.26L88.7793 555.459L93.4921 560.937L95.4844 565.879L93.6453 576.567L93.8369 579.977L94.4116 581.624L97.3235 586.068L101.462 594.151L102.573 598.442L102.956 604.533L101.117 608.135L92.5342 617.061L89.9288 619.091L99.1243 621.352L120.619 618.44L129.661 621.965L134.144 626.868L152.65 657.516L155.294 659.776L155.409 660.964L157.746 663.186L160.428 664.45L171.539 648.82L174.336 643.648L183.417 617.099L186.712 612.349L187.747 610.318L189.509 604.687L190.505 603.537L192.651 603.116L194.375 601.928L195.793 600.128L196.866 597.753H195.026L196.061 596.872L196.482 596.144L196.521 595.914ZM136.405 661.769L132.612 659.623L129.623 665.255L127.171 672.342V678.433L131.73 681L136.328 679.391L143.033 672.495L147.171 671.193L140.313 664.603L136.443 661.769H136.405Z" fill="#F2DCC9" stroke="#114156" stroke-width="2" stroke-linecap="round" stroke-linejoin="round"/>
<path fill-rule="evenodd" clip-rule="evenodd" d="M128.857 368.008L120.121 370.422L111.5 373.18L110.197 376.321L110.619 379.961L108.818 386.359L105.791 392.297L113.339 417.083L140.964 427.925L151.271 432.599L161.041 438.613L171.463 441.257L181.769 437.234L194.643 438.039L201.617 451.141L209.126 457.347L218.82 456.696L209.893 468.61L195.716 472.441L182.114 467.805L170.198 470.372L174.145 486.616L178.359 502.169L172.191 502.974L165.371 501.135L160.466 506.383L159.279 514.045L151.233 507.265L143.531 500.024L134.221 496.231L124.374 493.741L101.423 482.401L79.1623 469.798L78.5876 469.568L78.7408 469.261L81.921 463.821L81.3079 462.978L78.8558 460.756L75.0243 458.228L60.5413 452.75L50.3878 445.969L48.2039 443.44L44.1042 437.387L41.8436 435.357L31.3454 432.714L27.3223 430.492L25.7131 425.243L26.7093 422.14L28.7399 420.952L30.1576 419.42L29.5062 415.168L27.7438 412.448L3.41384 387.431L1 382.796L5.6361 379.271L15.6363 377.164L35.9048 380.919L46.3265 377.356L49.8131 373.563L55.3688 364.101L59.0087 359.963L59.7367 359.542L61.5758 358.392L76.5186 360.155L94.6798 363.028L111.921 364.369L128.857 368.008Z" fill="#F2DCC9" stroke="#114156" stroke-width="2" stroke-linecap="round" stroke-linejoin="round"/>
<path fill-rule="evenodd" clip-rule="evenodd" d="M184.72 214.27L182.881 222.89L182.306 231.701L173.877 238.176L163.608 238.789L155.179 233.617L146.022 232.161L140.581 242.428L137.439 254.572L133.225 263.575L124.872 266.027L117.286 266.793L111.347 272.195L104.642 286.408L102.381 301.77L107.056 307.708L103.837 321.577L109.929 325.561L115.37 330.349L117.324 336.862L117.286 343.835L122.305 349.198L129.585 350.922L132.688 359.005L128.857 368.008L111.922 364.369L94.6799 363.028L76.5186 360.155L61.5758 358.392L68.779 353.91L72.5722 350.769L75.7907 345.482L77.6298 340.693L78.9325 335.445L79.3539 330.081L77.17 318.933L76.9018 307.402L75.4075 302.115L73.4151 299.548L67.2464 293.917L64.7943 291.005L60.9628 282.922L58.5107 280.93L52.227 280.738L45.5219 282.998L40.6943 283.765L39.8896 278.823L44.5641 275.681L58.3574 271.965L61.8824 269.782L73.5684 256.794L81.6145 245.455L85.6759 241.777L94.8331 235.226L98.2048 230.169L99.5842 225.304L100.81 208.294L97.4002 206.647L101.883 202.356L107.324 199.061L113.033 196.954L115.025 191.744L118.32 187.798L124.91 189.561L131.309 191.744L136.826 188.373L141.424 183.546L152.574 190.748L160.888 201.935L172.919 207.949L184.72 214.27Z" fill="#F2DCC9" stroke="#114156" stroke-width="2" stroke-linecap="round" stroke-linejoin="round"/>
<path fill-rule="evenodd" clip-rule="evenodd" d="M268.897 410.264L271.618 414.861L272.461 423.941L267.02 431.028L258.782 438.154L260.123 441.41L261.349 444.705L263.916 446.62L267.288 447.923L275.947 450.374L283.802 452.252L283.151 456.351L284.07 462.365L286.139 471.521L282.116 478.302H282.078L280.392 476.004L278.974 473.169L277.212 470.64L274.415 468.533L271.541 467.269L259.855 464.741L254.453 464.626L250.238 466.311L248.552 470.64L248.016 473.054L245.602 477.191L245.027 480.333L245.564 483.972L246.866 485.964L248.667 487.765L250.545 490.906L254.951 506.307L256.368 508.95L256.407 512.321L251.158 520.29L246.713 531.668L221.234 569.02L219.011 575.418L217.862 577.678L215.333 579.479L209.969 582.275L206.674 585.072L204.299 587.83L202.459 591.24L200.774 595.952L198.781 595.224L198.015 594.764L197.21 594.075L197.019 593.347V582.39L192.727 572.468L184.643 572.085L177.861 573.732L164.566 562.776L158.781 548.294L160.658 545.804L163.455 544.77L166.137 543.697L167.631 540.671L168.168 535.576L167.899 530.404L167.555 518.872L159.279 514.045L160.466 506.383L165.371 501.135L172.191 502.974L178.359 502.169L174.145 486.616L170.198 470.372L182.114 467.805L195.716 472.441L209.893 468.61L218.82 456.695L219.625 447.501L224.337 440.031L228.82 437.196L233.188 434.208L236.253 429.534L240.583 425.971L248.859 422.944L255.794 417.849L260.008 410.877L263.61 403.483L268.897 410.264Z" fill="#F2DCC9" stroke="#114156" stroke-width="2" stroke-linecap="round" stroke-linejoin="round"/>
<path fill-rule="evenodd" clip-rule="evenodd" d="M180.007 382.566L185.831 378.811L192.038 376.704L199.471 377.509L206.866 376.245L219.624 372.414L229.433 377.93L242.23 390.879L259.012 396.74L267.518 398.273L274.683 403.062L274.568 408.119L268.897 410.264L263.61 403.483L260.008 410.877L255.794 417.849L248.859 422.944L240.583 425.971L236.253 429.534L233.188 434.208L228.82 437.196L224.337 440.031L219.624 447.501L218.82 456.695L209.126 457.347L201.616 451.141L194.643 438.039L181.769 437.234L171.463 441.257L161.041 438.613L151.271 432.599L140.964 427.925L113.339 417.083L105.791 392.297L108.818 386.359L110.619 379.961L110.197 376.321L111.5 373.18L120.121 370.422L128.857 368.008L141.5 372.72L154.834 375.402L166.903 381.531L180.007 382.566Z" fill="#F2DCC9" stroke="#114156" stroke-width="2" stroke-linecap="round" stroke-linejoin="round"/>
<path fill-rule="evenodd" clip-rule="evenodd" d="M353.612 360.614L361.351 375.938L366.983 390.304L370.968 392.756L372.999 396.97L377.673 401.453L383.919 403.675L392.884 409.574L401.582 414.018L407.176 423.672L413.076 435.472L414.877 440.682L412.272 445.892L410.164 453.516L410.854 461.561L401.084 472.671L386.103 475.582L382.578 473.284L381.39 470.64L382.041 467.844L383.65 466.541L385.489 465.545L386.869 463.63L388.133 457.921L388.286 451.907L387.558 446.658L386.064 443.287L380.164 435.855L376.6 433.288L370.355 430.875L365.029 429.61L358.324 429.112L352.577 430.683L350.163 435.625L351.083 441.563L350.393 443.938L342.385 451.868L340.201 453.286L337.289 454.09L334.148 453.975L328.554 452.252L326.063 451.983L323.994 452.826L320.239 455.47L317.711 456.044L314.3 455.623L313.113 456.351L310.469 458.841L309.703 459.913L308.017 463.438L307.71 464.664L306.982 465.775L303.342 466.962L302.001 467.652L294.875 476.195L291.043 478.455L284.645 479.26L282.116 478.302L286.139 471.521L284.07 462.365L283.151 456.351L283.802 452.252L275.947 450.374L267.288 447.922L263.916 446.62L261.349 444.704L260.123 441.41L258.782 438.153L267.02 431.028L272.461 423.94L271.618 414.861L268.897 410.264L274.568 408.118L274.683 403.062L267.518 398.273L259.012 396.74L242.23 390.879L229.433 377.93L241.272 374.751L248.361 364.177L252.767 362.491L257.824 360.078L257.211 356.4L255.449 353.297L258.246 349.466L258.552 345.865L256.867 335.176L265.602 332.418L267.901 337.322L271.809 338.931L275.488 335.368L277.595 330.541L277.71 315.907L279.511 301.809L282.767 294.683L289.396 290.047L293.189 286.408L294.262 280.891L299.894 278.095L302.155 272.003L316.293 281.658L319.32 307.9L330.776 323.53L347.213 331.92L357.443 344.371L353.612 360.614Z" fill="#F2DCC9" stroke="#114156" stroke-width="2" stroke-linecap="round" stroke-linejoin="round"/>
</svg>
